<?xml version="1.0" encoding="UTF-8"?>
<!DOCTYPE svg PUBLIC "-//W3C//DTD SVG 1.1//EN" "http://www.w3.org/Graphics/SVG/1.1/DTD/svg11.dtd">
<svg xmlns="http://www.w3.org/2000/svg" version="1.1" width="512px" height="512px" style="shape-rendering:geometricPrecision; text-rendering:geometricPrecision; image-rendering:optimizeQuality; fill-rule:evenodd; clip-rule:evenodd" xmlns:xlink="http://www.w3.org/1999/xlink">
<g><path style="opacity:0.999" fill="#234BE2" d="M 44.5,-0.5 C 185.167,-0.5 325.833,-0.5 466.5,-0.5C 490.5,5.5 505.5,20.5 511.5,44.5C 511.5,185.167 511.5,325.833 511.5,466.5C 505.5,490.5 490.5,505.5 466.5,511.5C 325.833,511.5 185.167,511.5 44.5,511.5C 20.5,505.5 5.5,490.5 -0.5,466.5C -0.5,325.833 -0.5,185.167 -0.5,44.5C 5.5,20.5 20.5,5.5 44.5,-0.5 Z"/></g>
<g><path style="opacity:1" fill="#878787" d="M 112.5,122.5 C 207.665,121.501 302.999,121.167 398.5,121.5C 398.784,123.415 398.451,125.081 397.5,126.5C 397.5,125.167 397.5,123.833 397.5,122.5C 302.5,122.5 207.5,122.5 112.5,122.5 Z"/></g>
<g><path style="opacity:1" fill="#fdfdfd" d="M 112.5,122.5 C 207.5,122.5 302.5,122.5 397.5,122.5C 397.5,123.833 397.5,125.167 397.5,126.5C 389.46,222.105 380.794,317.605 371.5,413C 332.788,423.405 294.121,433.905 255.5,444.5C 216.819,434.064 178.152,423.564 139.5,413C 135.813,382.953 132.813,352.786 130.5,322.5C 149.503,322.333 168.503,322.5 187.5,323C 189.276,338.115 190.943,353.281 192.5,368.5C 213.073,374.477 233.74,380.143 254.5,385.5C 275.828,379.835 297.161,374.168 318.5,368.5C 321.016,344.161 323.349,319.827 325.5,295.5C 259.503,294.5 193.503,294.167 127.5,294.5C 126.287,275.49 124.954,256.49 123.5,237.5C 192.5,237.5 261.5,237.5 330.5,237.5C 331.904,218.132 333.57,198.799 335.5,179.5C 262.833,179.5 190.167,179.5 117.5,179.5C 116.373,160.432 114.706,141.432 112.5,122.5 Z"/></g>
</svg>
